<?xml version="1.0" encoding="UTF-8" standalone="no"?>
<!-- Created with Inkscape (http://www.inkscape.org/) -->

<svg
   version="1.1"
   id="svg8195"
   width="800"
   height="800"
   viewBox="0 0 800 800"
   sodipodi:docname="sea-landscape-pdv.svg"
   inkscape:version="1.2 (dc2aedaf03, 2022-05-15)"
   xmlns:inkscape="http://www.inkscape.org/namespaces/inkscape"
   xmlns:sodipodi="http://sodipodi.sourceforge.net/DTD/sodipodi-0.dtd"
   xmlns="http://www.w3.org/2000/svg"
   xmlns:svg="http://www.w3.org/2000/svg">
  <defs
     id="defs8199">
    <clipPath
       clipPathUnits="userSpaceOnUse"
       id="clipPath8231">
      <path
         d="M 0,600 H 600 V 0 H 0 Z"
         id="path8229" />
    </clipPath>
  </defs>
  <sodipodi:namedview
     id="namedview8197"
     pagecolor="#ffffff"
     bordercolor="#000000"
     borderopacity="0.25"
     inkscape:showpageshadow="2"
     inkscape:pageopacity="0.0"
     inkscape:pagecheckerboard="0"
     inkscape:deskcolor="#d1d1d1"
     showgrid="false"
     inkscape:zoom="1.04625"
     inkscape:cx="400"
     inkscape:cy="400.4779"
     inkscape:window-width="1920"
     inkscape:window-height="1017"
     inkscape:window-x="-8"
     inkscape:window-y="-8"
     inkscape:window-maximized="1"
     inkscape:current-layer="g8203">
    <inkscape:page
       x="0"
       y="0"
       id="page8201"
       width="800"
       height="800" />
  </sodipodi:namedview>
  <g
     id="g8203"
     inkscape:groupmode="layer"
     inkscape:label="Page 1"
     transform="matrix(1.3333333,0,0,-1.3333333,0,800)">
    <path
       d="M 0.464,0 H 599.192 V 598.306 H 0.464 Z"
       style="fill:#cdf4f7;fill-opacity:1;fill-rule:nonzero;stroke:none"
       id="path8205" />
    <path
       d="M 0.464,57.166 H 599.192 V 345.981 H 0.464 Z"
       style="fill:#2dc0ca;fill-opacity:1;fill-rule:nonzero;stroke:none"
       id="path8207" />
    <g
       id="g8209"
       transform="translate(0.4644,329.3748)">
      <path
         d="M 0,0 V -5.055 L 411.174,1.444 Z"
         style="fill:#5fdae3;fill-opacity:1;fill-rule:nonzero;stroke:none"
         id="path8211" />
    </g>
    <g
       id="g8213"
       transform="translate(232.5735,307.7136)">
      <path
         d="m 0,0 33.935,-4.333 -163.181,-5.054 367.52,-3.611 -41.158,5.777 169.502,-1.55 V 0 Z"
         style="fill:#66dfe8;fill-opacity:1;fill-rule:nonzero;stroke:none"
         id="path8215" />
    </g>
    <g
       id="g8217"
       transform="translate(0.4644,261.8631)">
      <path
         d="M 0,0 405.038,7.943 0,13.719 Z"
         style="fill:#85ebf2;fill-opacity:1;fill-rule:nonzero;stroke:none"
         id="path8219" />
    </g>
    <g
       id="g8221"
       transform="translate(127.5174,230.6349)">
      <path
         d="M 0,0 471.674,-11.553 V 0.721 Z"
         style="fill:#a3f1f7;fill-opacity:1;fill-rule:nonzero;stroke:none"
         id="path8223" />
    </g>
    <g
       id="g8225">
      <g
         id="g8227"
         clip-path="url(#clipPath8231)">
        <g
           id="g8233"
           transform="translate(599.1914,225.3975)">
          <path
             d="m 0,0 v -225.819 h -598.727 v 215.711 c 46.007,-0.1 88.682,-6.29 123.961,-16.799 14.57,1.072 18.957,1.638 44.607,1.638 25.65,0 70.859,-3.164 103.133,-8.978 40.758,12.055 106.979,19.087 142.362,19.087 35.381,0 35.775,-0.837 52.827,-2.416 C -99.977,-6.903 -52.765,-0.108 0,0"
             style="fill:#abde7e;fill-opacity:1;fill-rule:evenodd;stroke:none"
             id="path8235" />
        </g>
        <g
           id="g8237"
           transform="translate(0.4644,215.2891)">
          <path
             d="m 0,0 c 46.007,-0.1 88.682,-6.29 123.961,-16.799 14.57,1.072 18.957,1.639 44.607,1.639 25.65,0 70.859,-3.164 103.133,-8.979 40.758,12.055 106.979,19.087 142.362,19.087 35.381,0 35.775,-0.837 52.827,-2.416 C 498.75,3.205 545.962,10 598.727,10.108 550.95,7.255 509.139,-1.232 470.029,-12.268 401.512,-6.826 337.334,-14.942 276.522,-33.568 224.656,-19.854 173.1,-17.342 121.715,-20.959 84.114,-9.518 43.377,-2.778 0,0"
             style="fill:#daf2c4;fill-opacity:1;fill-rule:evenodd;stroke:none"
             id="path8239" />
        </g>
        <g
           id="g8241"
           transform="translate(242.2603,-0.4219)">
          <path
             d="M 0,0 H -241.796 V 176.088 C -90.285,149.49 12.858,96.949 12.858,36.467 12.858,23.916 8.395,11.708 0,0"
             style="fill:#9ed46f;fill-opacity:1;fill-rule:evenodd;stroke:none"
             id="path8243" />
        </g>
        <g
           id="g8245"
           transform="translate(599.1914,142.7314)">
          <path
             d="m 0,0 v -143.153 h -598.727 v 36.831 C -539.732,-40.981 -355.969,6.676 -138.37,6.676 -90.263,6.676 -43.821,4.335 0,0"
             style="fill:#91c960;fill-opacity:1;fill-rule:evenodd;stroke:none"
             id="path8247" />
        </g>
        <g
           id="g8249"
           transform="translate(347.8418,144.998)">
          <path
             d="m 0,0 c 36.234,2.877 74.061,4.409 112.979,4.409 15.475,0 30.776,-0.245 45.875,-0.717 2.567,-4.33 3.949,-8.383 0.619,-10.836 -14.98,-11.03 -35.997,-10.186 -54.516,-11.914 -17.863,-1.666 -35.897,0.51 -53.791,1.806 -17.033,1.233 -37.111,-4.29 -50.905,5.777 C -3.09,-9.03 -2.421,-4.516 0,0"
             style="fill:#81b851;fill-opacity:1;fill-rule:evenodd;stroke:none"
             id="path8251" />
        </g>
        <g
           id="g8253"
           transform="translate(82.6392,525.9233)">
          <path
             d="m 0,0 c 1.463,0 2.893,-0.142 4.278,-0.412 5.103,10.517 15.885,17.769 28.36,17.769 16.791,0 30.511,-13.135 31.452,-29.69 1.189,0.17 2.403,0.26 3.637,0.26 9.533,0 17.841,-5.238 22.206,-12.991 3.556,5.544 9.772,9.217 16.848,9.217 10.017,0 18.314,-7.366 19.769,-16.979 H -42.601 c -0.269,1.151 -0.413,2.351 -0.413,3.585 0,8.648 7.011,15.658 15.659,15.658 2.255,0 4.398,-0.477 6.335,-1.335 C -17.985,-6.232 -9.721,0 0,0"
             style="fill:#ffffff;fill-opacity:1;fill-rule:evenodd;stroke:none"
             id="path8255" />
        </g>
        <g
           id="g8257"
           transform="translate(564.0127,421.8442)">
          <path
             d="m 0,0 c 0.132,0.864 0.2,1.749 0.2,2.649 0,9.691 -7.857,17.548 -17.549,17.548 -5.659,0 -10.694,-2.682 -13.902,-6.842 -3.509,7.745 -11.308,13.132 -20.363,13.132 -10.422,0 -19.175,-7.131 -21.651,-16.779 -2.862,1.003 -5.936,1.549 -9.142,1.549 -6.114,0 -11.767,-1.987 -16.343,-5.348 -3.358,2.722 -7.636,4.355 -12.295,4.355 -5.041,0 -9.639,-1.91 -13.103,-5.046 -2.512,3.269 -6.458,5.377 -10.901,5.377 -6.506,0 -11.957,-4.523 -13.379,-10.595 z"
             style="fill:#ffffff;fill-opacity:1;fill-rule:evenodd;stroke:none"
             id="path8259" />
        </g>
        <g
           id="g8261"
           transform="translate(499.0098,140.7412)">
          <path
             d="m 0,0 c -14.977,-11.028 -35.994,-10.185 -54.515,-11.912 -17.863,-1.669 -35.897,0.508 -53.791,1.806 -17.033,1.231 -37.11,-4.292 -50.904,5.774 -6.959,5.079 3.414,19.085 10.83,23.467 18.22,10.766 40.986,10.955 60.651,18.772 10.472,4.165 18.179,14.831 29.245,16.97 11.329,2.188 24.589,1.544 34.297,-4.693 C -15.16,44.38 -12.603,32.052 -7.941,22.385 -4.506,15.252 6.375,4.696 0,0"
             style="fill:#999999;fill-opacity:1;fill-rule:evenodd;stroke:none"
             id="path8263" />
        </g>
        <g
           id="g8265"
           transform="translate(339.5527,147.9121)">
          <path
             d="m 0,0 c 2.61,4.852 7.239,9.695 11.077,11.964 18.22,10.766 40.986,10.955 60.652,18.772 10.471,4.165 18.178,14.831 29.244,16.97 2.289,0.442 4.658,0.769 7.06,0.957 3.946,-2.738 7.36,-6.236 9.726,-9.985 2.955,-4.675 -6.654,-9.343 -11.552,-11.911 C 98.552,22.749 88.424,24.437 81.295,19.546 74.914,15.167 75.184,3.34 67.973,0.531 59.385,-2.813 49.67,4.583 40.501,3.659 30.959,2.698 22.273,-7.677 13.063,-5.004 9.522,-3.977 4.788,-2.205 0,0"
             style="fill:#a8a8a8;fill-opacity:1;fill-rule:evenodd;stroke:none"
             id="path8267" />
        </g>
        <g
           id="g8269"
           transform="translate(499.0098,140.7412)">
          <path
             d="m 0,0 c -14.977,-11.028 -35.994,-10.185 -54.515,-11.912 -17.863,-1.669 -35.897,0.508 -53.791,1.806 -5.884,0.424 -12.131,0.043 -18.354,-0.222 57.592,11.386 87.71,0.783 110.619,51.236 3.208,-5.781 5.265,-12.644 8.1,-18.523 C -4.506,15.252 6.375,4.696 0,0"
             style="fill:#808080;fill-opacity:1;fill-rule:evenodd;stroke:none"
             id="path8271" />
        </g>
        <g
           id="g8273"
           transform="translate(106.1807,429.0239)">
          <path
             d="m 0,0 c 1.216,0 2.404,-0.121 3.554,-0.35 3.502,10.781 13.627,18.575 25.577,18.575 13.214,0 24.2,-9.532 26.463,-22.094 3.459,-1.018 6.374,-3.305 8.209,-6.322 3.519,7.415 11.076,12.543 19.83,12.543 7.073,0 13.363,-3.349 17.375,-8.545 2.393,3.44 6.374,5.693 10.883,5.693 7.314,0 13.243,-5.929 13.243,-13.244 0,-0.921 -0.094,-1.82 -0.274,-2.689 H -18 C -17.17,-7.22 -9.429,0 0,0"
             style="fill:#ffffff;fill-opacity:1;fill-rule:evenodd;stroke:none"
             id="path8275" />
        </g>
        <g
           id="g8277"
           transform="translate(355.5059,525.8765)">
          <path
             d="m 0,0 c 1.82,8.825 9.633,15.459 18.997,15.459 3.758,0 7.265,-1.07 10.235,-2.919 3.529,13.919 16.138,24.218 31.153,24.218 14.211,0 26.263,-9.224 30.506,-22.01 3.847,4.876 9.808,8.007 16.501,8.007 3.461,0 6.725,-0.837 9.602,-2.319 6.511,4.758 14.535,7.57 23.217,7.57 8.699,0 16.737,-2.823 23.255,-7.599 4.835,5.212 11.743,8.474 19.412,8.474 14.62,0 26.475,-11.853 26.475,-26.474 0,-0.812 -0.041,-1.615 -0.111,-2.407 z"
             style="fill:#ffffff;fill-opacity:1;fill-rule:evenodd;stroke:none"
             id="path8279" />
        </g>
        <g
           id="g8281"
           transform="translate(220.3721,472.8462)">
          <path
             d="m 0,0 c 0.198,0 0.394,-0.005 0.59,-0.012 5.069,11.702 16.721,19.89 30.285,19.89 11.902,0 22.331,-6.303 28.134,-15.753 4.661,2.495 9.986,3.911 15.642,3.911 5.849,0 11.343,-1.514 16.116,-4.168 4.824,10.45 15.395,17.703 27.661,17.703 2.946,0 5.793,-0.42 8.487,-1.2 4.2,8.718 13.121,14.734 23.445,14.734 11.214,0 20.771,-7.095 24.423,-17.041 3.984,1.974 8.474,3.084 13.221,3.084 7.639,0 14.605,-2.874 19.883,-7.597 3.593,4.38 9.048,7.174 15.157,7.174 10.767,0 19.506,-8.682 19.599,-19.426 3.761,4.383 9.344,7.16 15.573,7.16 11.328,0 20.511,-9.185 20.511,-20.514 0,-0.425 -0.014,-0.849 -0.04,-1.268 H -15.477 C -14.354,-5.784 -7.853,0 0,0"
             style="fill:#ffffff;fill-opacity:1;fill-rule:evenodd;stroke:none"
             id="path8283" />
        </g>
        <g
           id="g8285"
           transform="translate(366.7324,369.9897)">
          <path
             d="m 0,0 c -0.271,4.424 -3.942,7.929 -8.435,7.929 -2.294,0 -4.374,-0.914 -5.895,-2.397 -0.497,4.292 -4.143,7.625 -8.568,7.625 -3.388,0 -6.321,-1.954 -7.731,-4.797 -1.935,1.27 -4.247,2.009 -6.732,2.009 -2.963,0 -5.68,-1.049 -7.801,-2.794 -1.623,2.321 -4.315,3.84 -7.36,3.84 -2.572,0 -4.892,-1.083 -6.528,-2.816 -1.995,1.338 -4.395,2.118 -6.978,2.118 -1.852,0 -3.611,-0.402 -5.192,-1.121 -1.921,5.231 -6.947,8.963 -12.844,8.963 -4.969,0 -9.318,-2.649 -11.714,-6.611 -1.889,0.993 -4.039,1.557 -6.322,1.557 -4.793,0 -9.006,-2.481 -11.427,-6.229 -0.419,0.086 -0.851,0.13 -1.294,0.13 -3.561,0 -6.449,-2.886 -6.449,-6.448 0,-0.325 0.025,-0.645 0.072,-0.958 z"
             style="fill:#ffffff;fill-opacity:1;fill-rule:evenodd;stroke:none"
             id="path8287" />
        </g>
        <g
           id="g8289"
           transform="translate(164.6113,172.041)">
          <path
             d="m 0,0 c 4.661,-3.095 13.226,-4.656 14.082,-9.209 0.78,-4.152 -5.026,-8.645 -10.472,-9.998 -11.41,-2.837 -24.359,-3.57 -36.102,-1.58 -8.556,1.45 -17.018,5.723 -21.299,11.315 -2.603,3.399 -0.467,9.148 3.971,11.315 10.248,5.002 23.063,8.348 35.379,7.895 C -7.891,9.493 -4.845,3.221 0,0"
             style="fill:#9ed46f;fill-opacity:1;fill-rule:evenodd;stroke:none"
             id="path8291" />
        </g>
        <g
           id="g8293"
           transform="translate(158.3901,182.6182)">
          <path
             d="m 0,0 c 4.661,-4.247 13.224,-6.389 14.08,-12.636 0.78,-5.7 -5.025,-11.862 -10.47,-13.719 -11.41,-3.89 -24.359,-4.898 -36.102,-2.165 -8.557,1.991 -17.018,7.853 -21.299,15.525 -2.604,4.663 -0.468,12.551 3.97,15.521 10.247,6.864 23.063,11.456 35.38,10.831 C -7.893,13.025 -4.847,4.416 0,0"
             style="fill:#999999;fill-opacity:1;fill-rule:evenodd;stroke:none"
             id="path8295" />
        </g>
        <g
           id="g8297"
           transform="translate(103.501,173.5381)">
          <path
             d="m 0,0 c -0.311,4.339 1.726,9.369 5.068,11.606 10.247,6.864 23.063,11.456 35.38,10.831 1.728,-0.086 3.213,-0.751 4.55,-1.762 C 42.687,20.47 40.453,20.11 39.005,19.008 36.866,17.384 39.33,12.248 36.838,11.247 30.687,8.776 23.351,12.002 16.982,10.163 13.496,9.157 12.114,4.292 8.678,3.124 6.085,2.24 2.997,0.858 0,0"
             style="fill:#ababab;fill-opacity:1;fill-rule:evenodd;stroke:none"
             id="path8299" />
        </g>
        <g
           id="g8301"
           transform="translate(163.2153,179.2637)">
          <path
             d="m 0,0 c 4.203,-2.505 8.651,-4.869 9.255,-9.281 0.78,-5.701 -5.026,-11.863 -10.47,-13.72 -11.41,-3.89 -24.36,-4.897 -36.102,-2.164 -6.217,1.445 -12.382,4.935 -16.932,9.677 3.442,-1.216 7.227,-2.421 9.53,-2.097 6.431,0.904 11.466,6.696 17.872,7.763 5.905,0.985 11.955,-2.731 17.871,-1.805 3.462,0.541 7.352,2.705 8.664,5.956 C 0.414,-3.875 0.317,-1.957 0,0"
             style="fill:#808080;fill-opacity:1;fill-rule:evenodd;stroke:none"
             id="path8303" />
        </g>
        <g
           id="g8305"
           transform="translate(411.1289,113.8262)">
          <path
             d="m 0,0 c 2.832,-1.882 8.036,-2.829 8.556,-5.596 0.474,-2.526 -3.054,-5.256 -6.364,-6.078 -6.933,-1.722 -14.804,-2.17 -21.938,-0.959 -5.201,0.881 -10.344,3.479 -12.945,6.877 -1.582,2.064 -0.283,5.559 2.413,6.875 6.228,3.039 14.015,5.074 21.502,4.797 C -4.797,5.769 -2.945,1.956 0,0"
             style="fill:#81b851;fill-opacity:1;fill-rule:evenodd;stroke:none"
             id="path8307" />
        </g>
        <g
           id="g8309"
           transform="translate(407.3467,120.2529)">
          <path
             d="m 0,0 c 2.833,-2.581 8.036,-3.881 8.556,-7.679 0.474,-3.463 -3.053,-7.209 -6.363,-8.337 -6.933,-2.365 -14.802,-2.975 -21.938,-1.316 -5.202,1.21 -10.342,4.771 -12.946,9.435 -1.582,2.834 -0.283,7.627 2.414,9.434 6.228,4.169 14.015,6.962 21.501,6.581 C -4.797,7.916 -2.944,2.684 0,0"
             style="fill:#999999;fill-opacity:1;fill-rule:evenodd;stroke:none"
             id="path8311" />
        </g>
        <g
           id="g8313"
           transform="translate(373.9902,114.7363)">
          <path
             d="m 0,0 c -0.19,2.637 1.048,5.692 3.079,7.054 6.229,4.169 14.016,6.962 21.501,6.581 1.051,-0.052 1.953,-0.456 2.765,-1.072 C 25.941,12.439 24.583,12.22 23.704,11.552 22.404,10.563 23.901,7.441 22.388,6.833 18.648,5.333 14.189,7.293 10.32,6.177 8.2,5.564 7.361,2.607 5.274,1.896 3.697,1.36 1.819,0.521 0,0"
             style="fill:#ababab;fill-opacity:1;fill-rule:evenodd;stroke:none"
             id="path8315" />
        </g>
        <g
           id="g8317"
           transform="translate(410.2783,118.2148)">
          <path
             d="m 0,0 c 2.555,-1.523 5.258,-2.959 5.624,-5.641 0.475,-3.463 -3.053,-7.209 -6.362,-8.336 -6.934,-2.366 -14.803,-2.976 -21.939,-1.317 -3.779,0.879 -7.526,2.999 -10.29,5.881 2.092,-0.738 4.391,-1.47 5.791,-1.275 3.909,0.55 6.967,4.069 10.862,4.718 3.588,0.599 7.264,-1.659 10.858,-1.095 2.106,0.329 4.469,1.645 5.267,3.62 C 0.251,-2.355 0.194,-1.189 0,0"
             style="fill:#808080;fill-opacity:1;fill-rule:evenodd;stroke:none"
             id="path8319" />
        </g>
        <g
           id="g8321"
           transform="translate(23.8501,141.4648)">
          <path
             d="m 0,0 c 6.899,3.575 15.48,4.21 22.903,2.165 13.77,-3.789 24.931,-15.489 38.733,-19.135 10.032,-2.648 20.901,3.124 30.987,0.724 3.347,-0.797 7.587,-6.569 5.389,-9.387 -5.965,-7.651 -15.037,-13.419 -24.25,-14.803 -21.352,-3.206 -43.594,-3.436 -64.669,1.446 -10.743,2.488 -24.615,8.426 -27.28,19.855 C -20.248,-10.302 -7.647,-3.965 0,0"
             style="fill:#91c960;fill-opacity:1;fill-rule:evenodd;stroke:none"
             id="path8323" />
        </g>
        <g
           id="g8325"
           transform="translate(26.2563,145.2539)">
          <path
             d="m 0,0 c 7.395,3.577 16.593,4.209 24.549,2.167 14.759,-3.791 26.722,-15.489 41.517,-19.135 10.753,-2.648 22.404,3.124 33.215,0.722 3.586,-0.797 8.133,-6.567 5.776,-9.385 -6.393,-7.65 -16.119,-13.419 -25.993,-14.803 -22.887,-3.206 -46.728,-3.436 -69.317,1.446 -11.515,2.489 -26.385,8.424 -29.242,19.856 C -21.704,-10.3 -8.197,-3.963 0,0"
             style="fill:#999999;fill-opacity:1;fill-rule:evenodd;stroke:none"
             id="path8327" />
        </g>
        <g
           id="g8329"
           transform="translate(26.2563,145.2539)">
          <path
             d="M 0,0 C 7.395,3.577 16.593,4.209 24.549,2.167 37.314,-1.112 47.987,-10.305 60.21,-15.087 h -10e-4 c -6.203,-6.602 -18.292,-1.311 -27.175,0.468 -8.414,1.684 -15.415,8.057 -23.828,9.747 -6.57,1.32 -13.387,-1.152 -20.084,-0.927 C -7.286,-3.493 -3.23,-1.561 0,0"
             style="fill:#ababab;fill-opacity:1;fill-rule:evenodd;stroke:none"
             id="path8331" />
        </g>
        <g
           id="g8333"
           transform="translate(124.0649,112.7949)">
          <path
             d="m 0,0 c -5.537,-4.132 -12.107,-7.044 -18.745,-7.975 -22.886,-3.206 -46.728,-3.436 -69.316,1.446 -11.516,2.489 -26.385,8.424 -29.243,19.856 -0.025,0.101 -0.046,0.201 -0.067,0.301 1.46,-0.955 2.769,-2.02 3.858,-3.19 5.09,-5.476 14.819,-4.968 22.203,-6.137 10.439,-1.653 20.91,5.543 31.409,4.332 C -47.879,7.246 -37.583,-1.554 -25.604,-3.281 -17.087,-4.508 -10.093,-3.925 0,0"
             style="fill:#808080;fill-opacity:1;fill-rule:evenodd;stroke:none"
             id="path8335" />
        </g>
        <g
           id="g8337"
           transform="translate(566.1563,191.7568)">
          <path
             d="m 0,0 c 1.676,-1.112 4.753,-1.674 5.06,-3.309 0.28,-1.494 -1.805,-3.108 -3.762,-3.594 -4.1,-1.018 -8.753,-1.283 -12.975,-0.567 -3.074,0.522 -6.113,2.057 -7.653,4.067 -0.936,1.221 -0.166,3.285 1.427,4.065 3.683,1.796 8.288,2.999 12.713,2.837 C -2.835,3.412 -1.741,1.156 0,0"
             style="fill:#9ed46f;fill-opacity:1;fill-rule:evenodd;stroke:none"
             id="path8339" />
        </g>
        <g
           id="g8341"
           transform="translate(563.9209,195.5566)">
          <path
             d="M 0,0 C 1.676,-1.525 4.753,-2.296 5.06,-4.541 5.34,-6.588 3.253,-8.802 1.298,-9.47 c -4.102,-1.398 -8.756,-1.759 -12.975,-0.78 -3.074,0.717 -6.115,2.823 -7.652,5.58 -0.936,1.676 -0.17,4.511 1.426,5.58 C -14.22,3.376 -9.615,5.025 -5.19,4.8 -2.837,4.683 -1.741,1.587 0,0"
             style="fill:#999999;fill-opacity:1;fill-rule:evenodd;stroke:none"
             id="path8343" />
        </g>
        <g
           id="g8345"
           transform="translate(544.1963,192.2949)">
          <path
             d="M 0,0 C -0.112,1.558 0.621,3.365 1.821,4.172 5.505,6.638 10.109,8.287 14.535,8.062 15.155,8.031 15.689,7.791 16.171,7.43 15.339,7.355 14.537,7.225 14.016,6.83 13.247,6.245 14.133,4.399 13.237,4.04 11.028,3.154 8.392,4.312 6.102,3.652 4.849,3.29 4.354,1.542 3.119,1.121 2.187,0.804 1.077,0.308 0,0"
             style="fill:#ababab;fill-opacity:1;fill-rule:evenodd;stroke:none"
             id="path8347" />
        </g>
        <g
           id="g8349"
           transform="translate(565.6553,194.3516)">
          <path
             d="m 0,0 c 1.509,-0.9 3.107,-1.749 3.326,-3.336 0.279,-2.047 -1.808,-4.261 -3.762,-4.929 -4.102,-1.398 -8.756,-1.759 -12.975,-0.78 -2.233,0.523 -4.449,1.775 -6.083,3.479 1.236,-0.437 2.598,-0.87 3.425,-0.752 2.31,0.324 4.12,2.404 6.421,2.788 2.123,0.354 4.296,-0.981 6.421,-0.65 1.245,0.196 2.642,0.974 3.115,2.142 C 0.148,-1.392 0.113,-0.703 0,0"
             style="fill:#808080;fill-opacity:1;fill-rule:evenodd;stroke:none"
             id="path8351" />
        </g>
        <g
           id="g8353"
           transform="translate(26.7793,89.166)">
          <path
             d="m 0,0 c 1.674,-1.114 4.752,-1.673 5.06,-3.311 0.28,-1.493 -1.806,-3.105 -3.763,-3.592 -4.1,-1.02 -8.753,-1.283 -12.974,-0.569 -3.074,0.522 -6.115,2.057 -7.654,4.067 -0.935,1.221 -0.167,3.288 1.428,4.066 3.682,1.798 8.287,3.001 12.714,2.837 C -2.836,3.411 -1.741,1.156 0,0"
             style="fill:#91c960;fill-opacity:1;fill-rule:evenodd;stroke:none"
             id="path8355" />
        </g>
        <g
           id="g8357"
           transform="translate(24.5435,92.9648)">
          <path
             d="M 0,0 C 1.675,-1.525 4.752,-2.294 5.059,-4.539 5.34,-6.589 3.254,-8.803 1.298,-9.47 c -4.101,-1.398 -8.755,-1.76 -12.974,-0.778 -3.075,0.715 -6.116,2.823 -7.655,5.577 -0.935,1.676 -0.167,4.513 1.428,5.58 3.682,2.466 8.287,4.116 12.714,3.893 C -2.836,4.682 -1.741,1.589 0,0"
             style="fill:#999999;fill-opacity:1;fill-rule:evenodd;stroke:none"
             id="path8359" />
        </g>
        <g
           id="g8361"
           transform="translate(4.8184,89.7021)">
          <path
             d="M 0,0 C -0.111,1.561 0.62,3.368 1.822,4.172 5.504,6.638 10.109,8.287 14.536,8.064 15.157,8.031 15.69,7.794 16.171,7.43 15.34,7.357 14.538,7.228 14.017,6.83 13.248,6.247 14.134,4.402 13.238,4.043 11.028,3.154 8.391,4.314 6.103,3.652 4.85,3.291 4.354,1.542 3.119,1.123 2.187,0.807 1.077,0.308 0,0"
             style="fill:#ababab;fill-opacity:1;fill-rule:evenodd;stroke:none"
             id="path8363" />
        </g>
        <g
           id="g8365"
           transform="translate(26.2773,91.7588)">
          <path
             d="m 0,0 c 1.51,-0.898 3.108,-1.749 3.326,-3.333 0.28,-2.05 -1.806,-4.264 -3.762,-4.931 -4.101,-1.398 -8.755,-1.76 -12.974,-0.778 -2.234,0.519 -4.449,1.774 -6.085,3.478 1.237,-0.437 2.598,-0.869 3.426,-0.753 2.31,0.324 4.119,2.406 6.421,2.789 2.123,0.352 4.296,-0.983 6.423,-0.649 1.244,0.195 2.642,0.974 3.113,2.142 C 0.148,-1.392 0.114,-0.703 0,0"
             style="fill:#808080;fill-opacity:1;fill-rule:evenodd;stroke:none"
             id="path8367" />
        </g>
        <g
           id="g8369"
           transform="translate(218.1514,533.5376)">
          <path
             d="M 0,0 C -13.741,4.74 -30.591,7.947 -47.666,6.969 -31.634,11.012 -16.345,10.371 -1.742,5.36 2.118,12.843 8.693,16.402 16.84,17.69 8.117,14.423 3.556,7.183 0,0"
             style="fill:#ffffff;fill-opacity:1;fill-rule:evenodd;stroke:none"
             id="path8371" />
        </g>
        <g
           id="g8373"
           transform="translate(474.1406,376.1865)">
          <path
             d="m 0,0 c -6.977,2.407 -15.534,4.036 -24.207,3.54 8.142,2.052 15.907,1.727 23.323,-0.817 1.96,3.8 5.3,5.607 9.437,6.261 C 4.122,7.325 1.808,3.648 0,0"
             style="fill:#ffffff;fill-opacity:1;fill-rule:evenodd;stroke:none"
             id="path8375" />
        </g>
        <g
           id="g8377"
           transform="translate(88.9053,379.02)">
          <path
             d="m 0,0 c -13.739,4.74 -30.59,7.947 -47.665,6.969 16.03,4.043 31.321,3.402 45.923,-1.608 C 2.118,12.843 8.693,16.402 16.84,17.69 8.117,14.423 3.556,7.184 0,0"
             style="fill:#ffffff;fill-opacity:1;fill-rule:evenodd;stroke:none"
             id="path8379" />
        </g>
      </g>
    </g>
  </g>
</svg>
